<mxfile host="65bd71144e">
    <diagram id="amQlKnqfOqNiIgZk25ug" name="第1頁">
        <mxGraphModel dx="1136" dy="531" grid="1" gridSize="10" guides="1" tooltips="1" connect="1" arrows="1" fold="1" page="1" pageScale="1" pageWidth="827" pageHeight="1169" math="0" shadow="0">
            <root>
                <mxCell id="0"/>
                <mxCell id="1" parent="0"/>
                <mxCell id="2" value="" style="ellipse;whiteSpace=wrap;html=1;aspect=fixed;" parent="1" vertex="1">
                    <mxGeometry x="120" y="110" width="60" height="60" as="geometry"/>
                </mxCell>
                <mxCell id="3" value="" style="endArrow=none;html=1;" parent="1" edge="1">
                    <mxGeometry width="50" height="50" relative="1" as="geometry">
                        <mxPoint x="150" y="260" as="sourcePoint"/>
                        <mxPoint x="150" y="170" as="targetPoint"/>
                    </mxGeometry>
                </mxCell>
                <mxCell id="4" value="" style="endArrow=none;html=1;" parent="1" edge="1">
                    <mxGeometry width="50" height="50" relative="1" as="geometry">
                        <mxPoint x="110" y="180" as="sourcePoint"/>
                        <mxPoint x="190" y="180" as="targetPoint"/>
                    </mxGeometry>
                </mxCell>
                <mxCell id="5" value="" style="endArrow=none;html=1;" parent="1" edge="1">
                    <mxGeometry width="50" height="50" relative="1" as="geometry">
                        <mxPoint x="110" y="300" as="sourcePoint"/>
                        <mxPoint x="150" y="260" as="targetPoint"/>
                    </mxGeometry>
                </mxCell>
                <mxCell id="6" value="" style="endArrow=none;html=1;" parent="1" edge="1">
                    <mxGeometry width="50" height="50" relative="1" as="geometry">
                        <mxPoint x="150" y="260" as="sourcePoint"/>
                        <mxPoint x="190" y="300" as="targetPoint"/>
                    </mxGeometry>
                </mxCell>
                <mxCell id="7" value="" style="ellipse;whiteSpace=wrap;html=1;aspect=fixed;" parent="1" vertex="1">
                    <mxGeometry x="120" y="440" width="60" height="60" as="geometry"/>
                </mxCell>
                <mxCell id="8" value="" style="endArrow=none;html=1;" parent="1" edge="1">
                    <mxGeometry width="50" height="50" relative="1" as="geometry">
                        <mxPoint x="150" y="590" as="sourcePoint"/>
                        <mxPoint x="150" y="500" as="targetPoint"/>
                    </mxGeometry>
                </mxCell>
                <mxCell id="9" value="" style="endArrow=none;html=1;" parent="1" edge="1">
                    <mxGeometry width="50" height="50" relative="1" as="geometry">
                        <mxPoint x="110" y="510" as="sourcePoint"/>
                        <mxPoint x="190" y="510" as="targetPoint"/>
                    </mxGeometry>
                </mxCell>
                <mxCell id="10" value="" style="endArrow=none;html=1;" parent="1" edge="1">
                    <mxGeometry width="50" height="50" relative="1" as="geometry">
                        <mxPoint x="110" y="630" as="sourcePoint"/>
                        <mxPoint x="150" y="590" as="targetPoint"/>
                    </mxGeometry>
                </mxCell>
                <mxCell id="11" value="" style="endArrow=none;html=1;" parent="1" edge="1">
                    <mxGeometry width="50" height="50" relative="1" as="geometry">
                        <mxPoint x="150" y="590" as="sourcePoint"/>
                        <mxPoint x="190" y="630" as="targetPoint"/>
                    </mxGeometry>
                </mxCell>
                <mxCell id="12" value="" style="ellipse;whiteSpace=wrap;html=1;aspect=fixed;" parent="1" vertex="1">
                    <mxGeometry x="550" y="110" width="60" height="60" as="geometry"/>
                </mxCell>
                <mxCell id="13" value="" style="endArrow=none;html=1;" parent="1" edge="1">
                    <mxGeometry width="50" height="50" relative="1" as="geometry">
                        <mxPoint x="580" y="260" as="sourcePoint"/>
                        <mxPoint x="580" y="170" as="targetPoint"/>
                    </mxGeometry>
                </mxCell>
                <mxCell id="14" value="" style="endArrow=none;html=1;" parent="1" edge="1">
                    <mxGeometry width="50" height="50" relative="1" as="geometry">
                        <mxPoint x="540" y="180" as="sourcePoint"/>
                        <mxPoint x="620" y="180" as="targetPoint"/>
                    </mxGeometry>
                </mxCell>
                <mxCell id="15" value="" style="endArrow=none;html=1;" parent="1" edge="1">
                    <mxGeometry width="50" height="50" relative="1" as="geometry">
                        <mxPoint x="540" y="300" as="sourcePoint"/>
                        <mxPoint x="580" y="260" as="targetPoint"/>
                    </mxGeometry>
                </mxCell>
                <mxCell id="16" value="" style="endArrow=none;html=1;" parent="1" edge="1">
                    <mxGeometry width="50" height="50" relative="1" as="geometry">
                        <mxPoint x="580" y="260" as="sourcePoint"/>
                        <mxPoint x="620" y="300" as="targetPoint"/>
                    </mxGeometry>
                </mxCell>
                <mxCell id="22" value="" style="ellipse;whiteSpace=wrap;html=1;aspect=fixed;" parent="1" vertex="1">
                    <mxGeometry x="550" y="440" width="60" height="60" as="geometry"/>
                </mxCell>
                <mxCell id="23" value="" style="endArrow=none;html=1;" parent="1" edge="1">
                    <mxGeometry width="50" height="50" relative="1" as="geometry">
                        <mxPoint x="580" y="590" as="sourcePoint"/>
                        <mxPoint x="580" y="500" as="targetPoint"/>
                    </mxGeometry>
                </mxCell>
                <mxCell id="24" value="" style="endArrow=none;html=1;" parent="1" edge="1">
                    <mxGeometry width="50" height="50" relative="1" as="geometry">
                        <mxPoint x="540" y="510" as="sourcePoint"/>
                        <mxPoint x="620" y="510" as="targetPoint"/>
                    </mxGeometry>
                </mxCell>
                <mxCell id="25" value="" style="endArrow=none;html=1;" parent="1" edge="1">
                    <mxGeometry width="50" height="50" relative="1" as="geometry">
                        <mxPoint x="540" y="630" as="sourcePoint"/>
                        <mxPoint x="580" y="590" as="targetPoint"/>
                    </mxGeometry>
                </mxCell>
                <mxCell id="26" value="" style="endArrow=none;html=1;" parent="1" edge="1">
                    <mxGeometry width="50" height="50" relative="1" as="geometry">
                        <mxPoint x="580" y="590" as="sourcePoint"/>
                        <mxPoint x="620" y="630" as="targetPoint"/>
                    </mxGeometry>
                </mxCell>
                <mxCell id="27" value="" style="rounded=0;whiteSpace=wrap;html=1;fillColor=none;" parent="1" vertex="1">
                    <mxGeometry x="280" y="100" width="210" height="640" as="geometry"/>
                </mxCell>
                <mxCell id="28" value="" style="rounded=0;whiteSpace=wrap;html=1;fillColor=none;" parent="1" vertex="1">
                    <mxGeometry x="280" y="60" width="210" height="40" as="geometry"/>
                </mxCell>
                <mxCell id="29" value="房屋買賣代銷軟體" style="text;strokeColor=none;fillColor=none;html=1;fontSize=24;fontStyle=1;verticalAlign=middle;align=center;" parent="1" vertex="1">
                    <mxGeometry x="335" y="60" width="100" height="40" as="geometry"/>
                </mxCell>
                <mxCell id="30" value="&lt;div style=&quot;color: rgb(204, 204, 204); background-color: rgb(31, 31, 31); font-family: Consolas, &amp;quot;Courier New&amp;quot;, monospace; font-weight: normal; font-size: 14px; line-height: 19px;&quot;&gt;孔菇莉代銷公司&lt;/div&gt;" style="text;strokeColor=none;fillColor=none;html=1;fontSize=24;fontStyle=1;verticalAlign=middle;align=center;" parent="1" vertex="1">
                    <mxGeometry x="100" y="300" width="100" height="40" as="geometry"/>
                </mxCell>
                <mxCell id="31" value="&lt;div style=&quot;color: rgb(204, 204, 204); background-color: rgb(31, 31, 31); font-family: Consolas, &amp;quot;Courier New&amp;quot;, monospace; font-weight: normal; font-size: 14px; line-height: 19px;&quot;&gt;&lt;div style=&quot;line-height: 19px;&quot;&gt;代銷管理者&lt;/div&gt;&lt;/div&gt;" style="text;strokeColor=none;fillColor=none;html=1;fontSize=24;fontStyle=1;verticalAlign=middle;align=center;" parent="1" vertex="1">
                    <mxGeometry x="100" y="640" width="100" height="40" as="geometry"/>
                </mxCell>
                <mxCell id="32" value="&lt;div style=&quot;color: rgb(204, 204, 204); background-color: rgb(31, 31, 31); font-family: Consolas, &amp;quot;Courier New&amp;quot;, monospace; font-weight: normal; font-size: 14px; line-height: 19px;&quot;&gt;預約型買家&lt;/div&gt;" style="text;strokeColor=none;fillColor=none;html=1;fontSize=24;fontStyle=1;verticalAlign=middle;align=center;" parent="1" vertex="1">
                    <mxGeometry x="530" y="300" width="100" height="40" as="geometry"/>
                </mxCell>
                <mxCell id="33" value="&lt;div style=&quot;color: rgb(204, 204, 204); background-color: rgb(31, 31, 31); font-family: Consolas, &amp;quot;Courier New&amp;quot;, monospace; font-weight: normal; font-size: 14px; line-height: 19px;&quot;&gt;&lt;div style=&quot;line-height: 19px;&quot;&gt;現場即時參觀買家&lt;/div&gt;&lt;/div&gt;" style="text;strokeColor=none;fillColor=none;html=1;fontSize=24;fontStyle=1;verticalAlign=middle;align=center;" parent="1" vertex="1">
                    <mxGeometry x="530" y="640" width="100" height="40" as="geometry"/>
                </mxCell>
                <mxCell id="34" value="&lt;div style=&quot;color: rgb(204, 204, 204); background-color: rgb(31, 31, 31); font-family: Consolas, &amp;quot;Courier New&amp;quot;, monospace; font-size: 14px; line-height: 19px;&quot;&gt;預約型買家填寫申請後，&lt;span style=&quot;&quot;&gt;將成功訊息推送給預約買家。&lt;/span&gt;&lt;/div&gt;" style="ellipse;whiteSpace=wrap;html=1;fillColor=none;strokeColor=none;" parent="1" vertex="1">
                    <mxGeometry x="325" y="120" width="115" height="80" as="geometry"/>
                </mxCell>
                <mxCell id="35" value="&lt;div style=&quot;color: rgb(204, 204, 204); background-color: rgb(31, 31, 31); font-family: Consolas, &amp;quot;Courier New&amp;quot;, monospace; font-size: 14px; line-height: 19px;&quot;&gt;預約型買家填寫申請後，&lt;span style=&quot;&quot;&gt;將失敗訊息推送給預約買家。&lt;/span&gt;&lt;/div&gt;" style="ellipse;whiteSpace=wrap;html=1;fillColor=none;strokeColor=none;" parent="1" vertex="1">
                    <mxGeometry x="325" y="210" width="120" height="80" as="geometry"/>
                </mxCell>
                <mxCell id="36" value="&lt;div style=&quot;color: rgb(204, 204, 204); background-color: rgb(31, 31, 31); font-family: Consolas, &amp;quot;Courier New&amp;quot;, monospace; font-size: 14px; line-height: 19px;&quot;&gt;&lt;div style=&quot;line-height: 19px;&quot;&gt;現場即時參觀買家填寫申請後，&lt;span style=&quot;&quot;&gt;將對應的訊息推播至現場即時參觀買家。&lt;/span&gt;&lt;/div&gt;&lt;/div&gt;" style="ellipse;whiteSpace=wrap;html=1;fillColor=none;strokeColor=none;" parent="1" vertex="1">
                    <mxGeometry x="325" y="310" width="120" height="80" as="geometry"/>
                </mxCell>
                <mxCell id="37" value="&lt;div style=&quot;color: rgb(204, 204, 204); background-color: rgb(31, 31, 31); font-family: Consolas, &amp;quot;Courier New&amp;quot;, monospace; font-size: 14px; line-height: 19px;&quot;&gt;&lt;div style=&quot;line-height: 19px;&quot;&gt;&lt;div style=&quot;line-height: 19px;&quot;&gt;若有已安排的代銷無法接待，需立即進行變更。&lt;/div&gt;&lt;/div&gt;&lt;/div&gt;" style="ellipse;whiteSpace=wrap;html=1;fillColor=none;strokeColor=none;" parent="1" vertex="1">
                    <mxGeometry x="325" y="410" width="120" height="80" as="geometry"/>
                </mxCell>
                <mxCell id="38" value="&lt;div style=&quot;color: rgb(204, 204, 204); background-color: rgb(31, 31, 31); font-family: Consolas, &amp;quot;Courier New&amp;quot;, monospace; font-size: 14px; line-height: 19px;&quot;&gt;&lt;div style=&quot;line-height: 19px;&quot;&gt;&lt;div style=&quot;line-height: 19px;&quot;&gt;&lt;div style=&quot;line-height: 19px;&quot;&gt;後台管理者審核預約型買家或現場即時參觀買家的申請。&lt;/div&gt;&lt;/div&gt;&lt;/div&gt;&lt;/div&gt;" style="ellipse;whiteSpace=wrap;html=1;fillColor=none;strokeColor=none;" parent="1" vertex="1">
                    <mxGeometry x="325" y="500" width="120" height="80" as="geometry"/>
                </mxCell>
                <mxCell id="39" value="&lt;div style=&quot;color: rgb(204, 204, 204); background-color: rgb(31, 31, 31); font-family: Consolas, &amp;quot;Courier New&amp;quot;, monospace; font-size: 14px; line-height: 19px;&quot;&gt;&lt;div style=&quot;line-height: 19px;&quot;&gt;&lt;div style=&quot;line-height: 19px;&quot;&gt;&lt;div style=&quot;line-height: 19px;&quot;&gt;&lt;div style=&quot;line-height: 19px;&quot;&gt;軟體需不斷更新以應對市場需求和改變，包括改進功能、增加安全性等。&lt;/div&gt;&lt;/div&gt;&lt;/div&gt;&lt;/div&gt;&lt;/div&gt;" style="ellipse;whiteSpace=wrap;html=1;fillColor=none;strokeColor=none;" parent="1" vertex="1">
                    <mxGeometry x="325" y="600" width="120" height="80" as="geometry"/>
                </mxCell>
                <mxCell id="40" value="" style="endArrow=none;html=1;exitX=1.026;exitY=0.588;exitDx=0;exitDy=0;exitPerimeter=0;" parent="1" source="34" edge="1">
                    <mxGeometry width="50" height="50" relative="1" as="geometry">
                        <mxPoint x="500" y="330" as="sourcePoint"/>
                        <mxPoint x="550" y="280" as="targetPoint"/>
                    </mxGeometry>
                </mxCell>
                <mxCell id="41" value="" style="endArrow=none;html=1;exitX=1;exitY=0.5;exitDx=0;exitDy=0;" parent="1" source="35" edge="1">
                    <mxGeometry width="50" height="50" relative="1" as="geometry">
                        <mxPoint x="500" y="330" as="sourcePoint"/>
                        <mxPoint x="550" y="280" as="targetPoint"/>
                    </mxGeometry>
                </mxCell>
                <mxCell id="42" value="" style="endArrow=none;html=1;exitX=1;exitY=0.5;exitDx=0;exitDy=0;" parent="1" source="36" edge="1">
                    <mxGeometry width="50" height="50" relative="1" as="geometry">
                        <mxPoint x="500" y="580" as="sourcePoint"/>
                        <mxPoint x="540" y="530" as="targetPoint"/>
                    </mxGeometry>
                </mxCell>
                <mxCell id="43" value="" style="endArrow=none;html=1;entryX=0;entryY=0.5;entryDx=0;entryDy=0;" parent="1" target="39" edge="1">
                    <mxGeometry width="50" height="50" relative="1" as="geometry">
                        <mxPoint x="200" y="260" as="sourcePoint"/>
                        <mxPoint x="230" y="240" as="targetPoint"/>
                    </mxGeometry>
                </mxCell>
                <mxCell id="44" value="" style="endArrow=none;html=1;entryX=0;entryY=0.5;entryDx=0;entryDy=0;" parent="1" target="38" edge="1">
                    <mxGeometry width="50" height="50" relative="1" as="geometry">
                        <mxPoint x="200" y="260" as="sourcePoint"/>
                        <mxPoint x="250" y="210" as="targetPoint"/>
                    </mxGeometry>
                </mxCell>
                <mxCell id="45" value="" style="endArrow=none;html=1;entryX=0;entryY=0.5;entryDx=0;entryDy=0;" parent="1" target="37" edge="1">
                    <mxGeometry width="50" height="50" relative="1" as="geometry">
                        <mxPoint x="180" y="600" as="sourcePoint"/>
                        <mxPoint x="230" y="550" as="targetPoint"/>
                    </mxGeometry>
                </mxCell>
            </root>
        </mxGraphModel>
    </diagram>
    <diagram id="ycxJ9LK6uJD3J30TPiuQ" name="第2頁">
        <mxGraphModel dx="1136" dy="531" grid="1" gridSize="10" guides="1" tooltips="1" connect="1" arrows="1" fold="1" page="1" pageScale="1" pageWidth="827" pageHeight="1169" math="0" shadow="0">
            <root>
                <mxCell id="0"/>
                <mxCell id="1" parent="0"/>
                <mxCell id="6LcdYaiVEfn1aLPraeSz-3" value="" style="group" vertex="1" connectable="0" parent="1">
                    <mxGeometry x="70" y="80" width="100" height="150" as="geometry"/>
                </mxCell>
                <mxCell id="6LcdYaiVEfn1aLPraeSz-1" value="&lt;font style=&quot;font-size: 20px;&quot;&gt;買家&lt;/font&gt;" style="rounded=0;whiteSpace=wrap;html=1;fillColor=none;" vertex="1" parent="6LcdYaiVEfn1aLPraeSz-3">
                    <mxGeometry width="100" height="30" as="geometry"/>
                </mxCell>
                <mxCell id="6LcdYaiVEfn1aLPraeSz-2" value="" style="rounded=0;whiteSpace=wrap;html=1;fontSize=20;fillColor=none;" vertex="1" parent="6LcdYaiVEfn1aLPraeSz-3">
                    <mxGeometry y="30" width="100" height="70" as="geometry"/>
                </mxCell>
                <mxCell id="6LcdYaiVEfn1aLPraeSz-9" value="&lt;font style=&quot;font-size: 14px;&quot;&gt;姓名&lt;/font&gt;" style="text;strokeColor=none;fillColor=none;html=1;fontSize=24;fontStyle=1;verticalAlign=middle;align=center;" vertex="1" parent="6LcdYaiVEfn1aLPraeSz-3">
                    <mxGeometry x="-20" y="30" width="100" height="40" as="geometry"/>
                </mxCell>
                <mxCell id="6LcdYaiVEfn1aLPraeSz-10" value="&lt;font style=&quot;font-size: 14px;&quot;&gt;聯絡方式&lt;/font&gt;" style="text;strokeColor=none;fillColor=none;html=1;fontSize=24;fontStyle=1;verticalAlign=middle;align=center;" vertex="1" parent="6LcdYaiVEfn1aLPraeSz-3">
                    <mxGeometry x="-10" y="55" width="100" height="40" as="geometry"/>
                </mxCell>
                <mxCell id="6LcdYaiVEfn1aLPraeSz-5" value="" style="group" vertex="1" connectable="0" parent="1">
                    <mxGeometry x="280" y="100" width="160" height="150" as="geometry"/>
                </mxCell>
                <mxCell id="6LcdYaiVEfn1aLPraeSz-6" value="&lt;font style=&quot;font-size: 20px;&quot;&gt;預約申請表填寫&lt;/font&gt;" style="rounded=0;whiteSpace=wrap;html=1;fillColor=none;" vertex="1" parent="6LcdYaiVEfn1aLPraeSz-5">
                    <mxGeometry y="-20" width="160" height="50" as="geometry"/>
                </mxCell>
                <mxCell id="6LcdYaiVEfn1aLPraeSz-7" value="" style="rounded=0;whiteSpace=wrap;html=1;fontSize=20;fillColor=none;" vertex="1" parent="6LcdYaiVEfn1aLPraeSz-5">
                    <mxGeometry y="30" width="160" height="120" as="geometry"/>
                </mxCell>
                <mxCell id="6LcdYaiVEfn1aLPraeSz-17" value="&lt;font style=&quot;font-size: 14px;&quot;&gt;聯絡方式&lt;/font&gt;" style="text;strokeColor=none;fillColor=none;html=1;fontSize=24;fontStyle=1;verticalAlign=middle;align=center;" vertex="1" parent="6LcdYaiVEfn1aLPraeSz-5">
                    <mxGeometry x="-10" y="55" width="100" height="40" as="geometry"/>
                </mxCell>
                <mxCell id="6LcdYaiVEfn1aLPraeSz-18" value="&lt;font style=&quot;font-size: 14px;&quot;&gt;姓名&lt;/font&gt;" style="text;strokeColor=none;fillColor=none;html=1;fontSize=24;fontStyle=1;verticalAlign=middle;align=center;" vertex="1" parent="6LcdYaiVEfn1aLPraeSz-5">
                    <mxGeometry x="-20" y="30" width="100" height="40" as="geometry"/>
                </mxCell>
                <mxCell id="6LcdYaiVEfn1aLPraeSz-24" value="&lt;font style=&quot;font-size: 14px;&quot;&gt;預約時間&lt;/font&gt;" style="text;strokeColor=none;fillColor=none;html=1;fontSize=24;fontStyle=1;verticalAlign=middle;align=center;" vertex="1" parent="6LcdYaiVEfn1aLPraeSz-5">
                    <mxGeometry x="-10" y="80" width="100" height="40" as="geometry"/>
                </mxCell>
                <mxCell id="6LcdYaiVEfn1aLPraeSz-25" value="&lt;span style=&quot;font-size: 14px;&quot;&gt;申請項目&lt;/span&gt;" style="text;strokeColor=none;fillColor=none;html=1;fontSize=24;fontStyle=1;verticalAlign=middle;align=center;" vertex="1" parent="6LcdYaiVEfn1aLPraeSz-5">
                    <mxGeometry x="-10" y="110" width="100" height="40" as="geometry"/>
                </mxCell>
                <mxCell id="6LcdYaiVEfn1aLPraeSz-34" value="1" style="text;strokeColor=none;fillColor=none;html=1;fontSize=24;fontStyle=1;verticalAlign=middle;align=center;" vertex="1" parent="6LcdYaiVEfn1aLPraeSz-5">
                    <mxGeometry x="-70" width="100" height="40" as="geometry"/>
                </mxCell>
                <mxCell id="6LcdYaiVEfn1aLPraeSz-40" value="" style="triangle;whiteSpace=wrap;html=1;fontSize=15;fillColor=none;" vertex="1" parent="6LcdYaiVEfn1aLPraeSz-5">
                    <mxGeometry x="-40" y="-20" width="20" height="30" as="geometry"/>
                </mxCell>
                <mxCell id="6LcdYaiVEfn1aLPraeSz-11" value="" style="group" vertex="1" connectable="0" parent="1">
                    <mxGeometry x="280" y="350" width="140" height="130" as="geometry"/>
                </mxCell>
                <mxCell id="6LcdYaiVEfn1aLPraeSz-12" value="&lt;font style=&quot;font-size: 20px;&quot;&gt;代銷管理員&lt;/font&gt;" style="rounded=0;whiteSpace=wrap;html=1;fillColor=none;" vertex="1" parent="6LcdYaiVEfn1aLPraeSz-11">
                    <mxGeometry y="-17.333333333333336" width="140" height="43.333333333333336" as="geometry"/>
                </mxCell>
                <mxCell id="6LcdYaiVEfn1aLPraeSz-13" value="" style="rounded=0;whiteSpace=wrap;html=1;fontSize=20;fillColor=none;" vertex="1" parent="6LcdYaiVEfn1aLPraeSz-11">
                    <mxGeometry y="26" width="140" height="104" as="geometry"/>
                </mxCell>
                <mxCell id="6LcdYaiVEfn1aLPraeSz-26" value="&lt;font style=&quot;font-size: 14px;&quot;&gt;姓名&lt;/font&gt;" style="text;strokeColor=none;fillColor=none;html=1;fontSize=24;fontStyle=1;verticalAlign=middle;align=center;" vertex="1" parent="6LcdYaiVEfn1aLPraeSz-11">
                    <mxGeometry x="-8.75" y="26" width="87.5" height="34.66666666666667" as="geometry"/>
                </mxCell>
                <mxCell id="6LcdYaiVEfn1aLPraeSz-27" value="&lt;span style=&quot;font-size: 14px;&quot;&gt;聯絡方式&lt;/span&gt;" style="text;strokeColor=none;fillColor=none;html=1;fontSize=24;fontStyle=1;verticalAlign=middle;align=center;" vertex="1" parent="6LcdYaiVEfn1aLPraeSz-11">
                    <mxGeometry y="52" width="87.5" height="34.66666666666667" as="geometry"/>
                </mxCell>
                <mxCell id="6LcdYaiVEfn1aLPraeSz-28" value="&lt;span style=&quot;font-size: 14px;&quot;&gt;審核狀態&lt;/span&gt;" style="text;strokeColor=none;fillColor=none;html=1;fontSize=24;fontStyle=1;verticalAlign=middle;align=center;" vertex="1" parent="6LcdYaiVEfn1aLPraeSz-11">
                    <mxGeometry y="78" width="87.5" height="34.66666666666667" as="geometry"/>
                </mxCell>
                <mxCell id="6LcdYaiVEfn1aLPraeSz-14" value="" style="group" vertex="1" connectable="0" parent="1">
                    <mxGeometry x="580" y="370" width="140" height="100" as="geometry"/>
                </mxCell>
                <mxCell id="6LcdYaiVEfn1aLPraeSz-15" value="&lt;font style=&quot;font-size: 20px;&quot;&gt;閒置代銷人員&lt;/font&gt;" style="rounded=0;whiteSpace=wrap;html=1;fillColor=none;" vertex="1" parent="6LcdYaiVEfn1aLPraeSz-14">
                    <mxGeometry y="-13.333333333333336" width="140" height="33.333333333333336" as="geometry"/>
                </mxCell>
                <mxCell id="6LcdYaiVEfn1aLPraeSz-16" value="" style="rounded=0;whiteSpace=wrap;html=1;fontSize=20;fillColor=none;" vertex="1" parent="6LcdYaiVEfn1aLPraeSz-14">
                    <mxGeometry y="20" width="140" height="80" as="geometry"/>
                </mxCell>
                <mxCell id="6LcdYaiVEfn1aLPraeSz-29" value="&lt;font style=&quot;font-size: 14px;&quot;&gt;姓名&lt;/font&gt;" style="text;strokeColor=none;fillColor=none;html=1;fontSize=24;fontStyle=1;verticalAlign=middle;align=center;" vertex="1" parent="6LcdYaiVEfn1aLPraeSz-14">
                    <mxGeometry x="-8.75" y="26.66666666666667" width="87.5" height="26.66666666666667" as="geometry"/>
                </mxCell>
                <mxCell id="6LcdYaiVEfn1aLPraeSz-30" value="&lt;span style=&quot;font-size: 14px;&quot;&gt;聯絡方式&lt;/span&gt;" style="text;strokeColor=none;fillColor=none;html=1;fontSize=24;fontStyle=1;verticalAlign=middle;align=center;" vertex="1" parent="6LcdYaiVEfn1aLPraeSz-14">
                    <mxGeometry y="46.66666666666667" width="87.5" height="26.66666666666667" as="geometry"/>
                </mxCell>
                <mxCell id="6LcdYaiVEfn1aLPraeSz-49" value="1" style="text;strokeColor=none;fillColor=none;html=1;fontSize=24;fontStyle=1;verticalAlign=middle;align=center;" vertex="1" parent="6LcdYaiVEfn1aLPraeSz-14">
                    <mxGeometry x="-60" y="33.33000000000004" width="100" height="40" as="geometry"/>
                </mxCell>
                <mxCell id="6LcdYaiVEfn1aLPraeSz-32" value="" style="endArrow=none;html=1;fontSize=14;entryX=0.2;entryY=0.25;entryDx=0;entryDy=0;entryPerimeter=0;" edge="1" parent="1" target="6LcdYaiVEfn1aLPraeSz-18">
                    <mxGeometry width="50" height="50" relative="1" as="geometry">
                        <mxPoint x="170" y="140" as="sourcePoint"/>
                        <mxPoint x="220" y="90" as="targetPoint"/>
                    </mxGeometry>
                </mxCell>
                <mxCell id="6LcdYaiVEfn1aLPraeSz-33" value="1" style="text;strokeColor=none;fillColor=none;html=1;fontSize=24;fontStyle=1;verticalAlign=middle;align=center;" vertex="1" parent="1">
                    <mxGeometry x="140" y="100" width="100" height="40" as="geometry"/>
                </mxCell>
                <mxCell id="6LcdYaiVEfn1aLPraeSz-36" value="" style="endArrow=none;html=1;fontSize=15;" edge="1" parent="1">
                    <mxGeometry width="50" height="50" relative="1" as="geometry">
                        <mxPoint x="360" y="330" as="sourcePoint"/>
                        <mxPoint x="360" y="250" as="targetPoint"/>
                    </mxGeometry>
                </mxCell>
                <mxCell id="6LcdYaiVEfn1aLPraeSz-38" value="1..." style="text;strokeColor=none;fillColor=none;html=1;fontSize=24;fontStyle=1;verticalAlign=middle;align=center;" vertex="1" parent="1">
                    <mxGeometry x="330" y="250" width="100" height="40" as="geometry"/>
                </mxCell>
                <mxCell id="6LcdYaiVEfn1aLPraeSz-39" value="1" style="text;strokeColor=none;fillColor=none;html=1;fontSize=24;fontStyle=1;verticalAlign=middle;align=center;" vertex="1" parent="1">
                    <mxGeometry x="324" y="300" width="100" height="40" as="geometry"/>
                </mxCell>
                <mxCell id="6LcdYaiVEfn1aLPraeSz-35" value="&lt;font style=&quot;font-size: 15px;&quot;&gt;填寫&lt;/font&gt;" style="text;strokeColor=none;fillColor=none;html=1;fontSize=24;fontStyle=1;verticalAlign=middle;align=center;" vertex="1" parent="1">
                    <mxGeometry x="190" y="80" width="60" height="30" as="geometry"/>
                </mxCell>
                <mxCell id="6LcdYaiVEfn1aLPraeSz-44" value="&lt;font style=&quot;font-size: 15px;&quot;&gt;審核&lt;/font&gt;" style="text;strokeColor=none;fillColor=none;html=1;fontSize=24;fontStyle=1;verticalAlign=middle;align=center;" vertex="1" parent="1">
                    <mxGeometry x="380" y="290" width="60" height="30" as="geometry"/>
                </mxCell>
                <mxCell id="6LcdYaiVEfn1aLPraeSz-43" value="" style="triangle;whiteSpace=wrap;html=1;fontSize=15;fillColor=none;rotation=-90;" vertex="1" parent="1">
                    <mxGeometry x="404" y="270" width="20" height="20" as="geometry"/>
                </mxCell>
                <mxCell id="6LcdYaiVEfn1aLPraeSz-47" value="" style="endArrow=none;html=1;fontSize=15;" edge="1" parent="1">
                    <mxGeometry width="50" height="50" relative="1" as="geometry">
                        <mxPoint x="420" y="440" as="sourcePoint"/>
                        <mxPoint x="580" y="440" as="targetPoint"/>
                    </mxGeometry>
                </mxCell>
                <mxCell id="6LcdYaiVEfn1aLPraeSz-48" value="1" style="text;strokeColor=none;fillColor=none;html=1;fontSize=24;fontStyle=1;verticalAlign=middle;align=center;" vertex="1" parent="1">
                    <mxGeometry x="380" y="410" width="100" height="40" as="geometry"/>
                </mxCell>
                <mxCell id="6LcdYaiVEfn1aLPraeSz-50" value="&lt;font style=&quot;font-size: 15px;&quot;&gt;安排&lt;/font&gt;" style="text;strokeColor=none;fillColor=none;html=1;fontSize=24;fontStyle=1;verticalAlign=middle;align=center;" vertex="1" parent="1">
                    <mxGeometry x="490" y="380" width="60" height="30" as="geometry"/>
                </mxCell>
                <mxCell id="6LcdYaiVEfn1aLPraeSz-51" value="" style="triangle;whiteSpace=wrap;html=1;fontSize=15;fillColor=none;" vertex="1" parent="1">
                    <mxGeometry x="540" y="380" width="20" height="30" as="geometry"/>
                </mxCell>
            </root>
        </mxGraphModel>
    </diagram>
</mxfile>